<?xml version="1.0" encoding="utf-8"?>
<svg xmlns="http://www.w3.org/2000/svg" width="250" height="72" viewBox="0 0 250 72">
  <path d="m3.01 2.59v66.64h12.45v-26.81h6.4v26.81h14.88v-28.24h-5.63v-10.96h5.35v-27.44h-14.79v26.9h-6.4v-26.9h-12.26z" fill="#38BDDA"/>
  <path d="m12.11 4.82v3.28h2.62v-3.28h-2.62z" fill="#051738"/>
  <path d="m5.76 4.82v3.28h2.62v-3.28h-2.62z" fill="#051738"/>
  <path d="m12.11 10.44v3.28h2.62v-3.28h-2.62z" fill="#051738"/>
  <path d="m5.76 10.44v3.28h2.62v-3.28h-2.62z" fill="#051738"/>
  <path d="m12.11 17.14v3.28h2.62v-3.28h-2.62z" fill="#051738"/>
  <path d="m5.76 17.14v3.28h2.62v-3.28h-2.62z" fill="#051738"/>
  <path d="m12.11 24.07v3.28h2.62v-3.28h-2.62z" fill="#051738"/>
  <path d="m5.76 24.07v3.28h2.62v-3.28h-2.62z" fill="#051738"/>
  <path d="m29.77 45.71v3.4h3.26v-3.4h-3.26z" fill="#051738"/>
  <path d="m24.67 45.71v3.4h3.26v-3.4h-3.26z" fill="#051738"/>
  <path d="m30.79 52.06v3.4h2.97v-3.4h-2.97z" fill="#051738"/>
  <path d="m24.67 52.06v3.4h2.97v-3.4h-2.97z" fill="#051738"/>
  <path d="m46.45 2.59v5.73h-5.73v54.66h5.89v6.25h22.3v-5.97h5.73v-55.08h-5.89v-5.59h-22.3z" fill="#38BDDA"/>
  <path d="m54.34 16.62v38.92h5.58v-38.92h-5.58z" fill="#051738"/>
  <path d="m43.78 18.63v3.28h3.58v-3.28h-3.58z" fill="#051738"/>
  <path d="m48.89 18.63v3.28h2.73v-3.28h-2.73z" fill="#051738"/>
  <path d="m43.78 23.75v3.28h3.58v-3.28h-3.58z" fill="#051738"/>
  <path d="m48.89 23.75v3.28h2.73v-3.28h-2.73z" fill="#051738"/>
  <path d="m43.78 31.19v3.28h3.58v-3.28h-3.58z" fill="#051738"/>
  <path d="m48.89 31.19v3.28h2.73v-3.28h-2.73z" fill="#051738"/>
  <path d="m63.45 18.63v3.28h2.73v-3.28h-2.73z" fill="#051738"/>
  <path d="m68.86 18.63v3.28h3.29v-3.28h-3.29z" fill="#051738"/>
  <path d="m63.72 23.75v3.28h3.26v-3.28h-3.26z" fill="#051738"/>
  <path d="m69.13 23.75v3.28h2.73v-3.28h-2.73z" fill="#051738"/>
  <path d="m63.72 30.68v3.28h3.26v-3.28h-3.26z" fill="#051738"/>
  <path d="m68.83 30.68v3.28h2.73v-3.28h-2.73z" fill="#051738"/>
  <path d="m63.72 37.03v3.28h3.26v-3.28h-3.26z" fill="#051738"/>
  <path d="m68.83 37.03v3.28h2.73v-3.28h-2.73z" fill="#051738"/>
  <path d="m63.72 43.96v3.28h3.26v-3.28h-3.26z" fill="#051738"/>
  <path d="m68.83 43.96v3.28h2.73v-3.28h-2.73z" fill="#051738"/>
  <path d="m79.32 2.59v66.64h13.44v-66.64h-13.44z" fill="#38BDDA"/>
  <path d="m82.52 4.82v3.28h3.26v-3.28h-3.26z" fill="#051738"/>
  <path d="m87.63 4.82v3.28h2.73v-3.28h-2.73z" fill="#051738"/>
  <path d="m82.52 10.44v3.28h3.26v-3.28h-3.26z" fill="#051738"/>
  <path d="m87.63 10.44v3.28h2.73v-3.28h-2.73z" fill="#051738"/>
  <path d="m82.52 16.62v3.28h3.26v-3.28h-3.26z" fill="#051738"/>
  <path d="m87.63 16.62v3.28h2.73v-3.28h-2.73z" fill="#051738"/>
  <path d="m82.25 24.07v3.28h3.26v-3.28h-3.26z" fill="#051738"/>
  <path d="m87.63 24.07v3.28h2.73v-3.28h-2.73z" fill="#051738"/>
  <path d="m95.49 55.01v14.22h13.94v-14.22h-13.94z" fill="#38BDDA"/>
  <path d="m127.3 2.59v5.73h-5.73v54.8h5.62v6.11h22.3v-6.11h5.89v-20.91h-14.21v12.8h-6.4v-38.94h7.44v12.25h13.17v-20h-5.78v-5.73h-22.3z" fill="#38BDDA"/>
  <path d="m124.7 18.63v3.28h3.02v-3.28h-3.02z" fill="#051738"/>
  <path d="m129.8 18.63v3.28h2.73v-3.28h-2.73z" fill="#051738"/>
  <path d="m124.7 24.35v3.28h3.02v-3.28h-3.02z" fill="#051738"/>
  <path d="m129.8 24.35v3.28h2.73v-3.28h-2.73z" fill="#051738"/>
  <path d="m124.7 30.68v3.28h3.02v-3.28h-3.02z" fill="#051738"/>
  <path d="m129.8 30.68v3.28h2.73v-3.28h-2.73z" fill="#051738"/>
  <path d="m124.7 37.03v3.28h3.02v-3.28h-3.02z" fill="#051738"/>
  <path d="m129.8 37.03v3.28h2.73v-3.28h-2.73z" fill="#051738"/>
  <path d="m144.3 44.74v10.27h9.42v-10.27h-9.42z" fill="#38BDDA"/>
  <path d="m146 46.46v3.28h2.73v-3.28h-2.73z" fill="#051738"/>
  <path d="m150 46.46v3.28h2.73v-3.28h-2.73z" fill="#051738"/>
  <path d="m145.7 51.58v3.28h3.01v-3.28h-3.01z" fill="#051738"/>
  <path d="m150 51.58v3.28h2.73v-3.28h-2.73z" fill="#051738"/>
  <path d="m160 2.59v14.42h13.44v-14.42h-13.44z" fill="#38BDDA"/>
  <path d="m160 20.04v49.19h13.44v-49.19h-13.44z" fill="#38BDDA"/>
  <path d="m163 25.16v3.28h2.73v-3.28h-2.73z" fill="#051738"/>
  <path d="m168.1 25.16v3.28h2.73v-3.28h-2.73z" fill="#051738"/>
  <path d="m163 31.49v3.28h2.73v-3.28h-2.73z" fill="#051738"/>
  <path d="m168.1 31.49v3.28h2.73v-3.28h-2.73z" fill="#051738"/>
  <path d="m163 37.84v3.28h2.73v-3.28h-2.73z" fill="#051738"/>
  <path d="m168.1 37.84v3.28h2.73v-3.28h-2.73z" fill="#051738"/>
  <path d="m163 44.19v3.28h2.73v-3.28h-2.73z" fill="#051738"/>
  <path d="m168.1 44.19v3.28h2.73v-3.28h-2.73z" fill="#051738"/>
  <path d="m177.8 2.59v13.59h31.13v-13.59h-31.13z" fill="#38BDDA"/>
  <path d="m186.4 19.76v49.47h13.45v-49.47h-13.45z" fill="#38BDDA"/>
  <path d="m188.9 21.63v3.28h2.73v-3.28h-2.73z" fill="#051738"/>
  <path d="m194.3 21.63v3.28h2.73v-3.28h-2.73z" fill="#051738"/>
  <path d="m188.9 27.25v3.28h2.73v-3.28h-2.73z" fill="#051738"/>
  <path d="m194.3 27.25v3.28h2.73v-3.28h-2.73z" fill="#051738"/>
  <path d="m188.9 33.39v3.28h2.73v-3.28h-2.73z" fill="#051738"/>
  <path d="m194.3 33.39v3.28h2.73v-3.28h-2.73z" fill="#051738"/>
  <path d="m188.9 39.42v3.28h2.73v-3.28h-2.73z" fill="#051738"/>
  <path d="m194.3 39.42v3.28h2.73v-3.28h-2.73z" fill="#051738"/>
  <path d="m188.6 46.64v3.28h3.01v-3.28h-3.01z" fill="#051738"/>
  <path d="m194.3 46.64v3.28h2.73v-3.28h-2.73z" fill="#051738"/>
  <path d="m212.7 2.59v34.62h5.89v5h23.13v-5.45h5.35v-34.17h-13.17v26.62h-7.44v-26.62h-13.76z" fill="#38BDDA"/>
  <path d="m214.8 4.54v3.28h3.01v-3.28h-3.01z" fill="#051738"/>
  <path d="m219.9 4.54v3.28h2.73v-3.28h-2.73z" fill="#051738"/>
  <path d="m214.8 10.44v3.28h3.01v-3.28h-3.01z" fill="#051738"/>
  <path d="m219.9 10.44v3.28h2.73v-3.28h-2.73z" fill="#051738"/>
  <path d="m214.8 16.62v3.28h3.01v-3.28h-3.01z" fill="#051738"/>
  <path d="m219.9 16.62v3.28h2.73v-3.28h-2.73z" fill="#051738"/>
  <path d="m214.8 23.21v3.28h3.01v-3.28h-3.01z" fill="#051738"/>
  <path d="m219.9 23.21v3.28h2.73v-3.28h-2.73z" fill="#051738"/>
  <path d="m235.9 3.99v3.28h2.73v-3.28h-2.73z" fill="#051738"/>
  <path d="m241.3 3.99v3.28h3.26v-3.28h-3.26z" fill="#051738"/>
  <path d="m236.2 9.08v3.28h2.73v-3.28h-2.73z" fill="#051738"/>
  <path d="m241.3 9.08v3.28h3.26v-3.28h-3.26z" fill="#051738"/>
  <path d="m236.2 17.14v3.28h2.73v-3.28h-2.73z" fill="#051738"/>
  <path d="m241.3 17.14v3.28h3.26v-3.28h-3.26z" fill="#051738"/>
  <path d="m222.9 45.56v23.67h14.73v-23.67h-14.73z" fill="#38BDDA"/>
</svg>